# xmcd
#
# Track frame offsets:
# 150
# 16002
# 32775
# 54352
# 67875
# 81585
# 96325
# 111760
# 126195
# 143337
# 160250
# 176902
# 190462
# 207412
#
# Disc length: 2957 seconds
#
#
# Revision: 0
# Processed by: cddbd v1.5.1PL2 Copyright (c) Steve Scherf et al.
# Submitted via: FreeRIP 2.944 
#
DISCID=c00b8b0e
DTITLE=Bonnie Tyler - Living for the city
DYEAR=1995
DGENRE=Country
TTITLE0=It's a heartache
TTITLE1=Living for the city
TTITLE2=If I sing you a Love-Song
TTITLE3=Bye bye now me sweet love
TTITLE4=Baby I just love you
TTITLE5=Got so used to loving you
TTITLE6=Love of a Rolling Stone
TTITLE7=Give me your love
TTITLE8=The closer you get
TTITLE9=Wild side of life
TTITLE10=Words can changeyour lif
TTITLE11=my guns are loaded
TTITLE12=Here's monday
TTITLE13=Love tangle
EXTD=
EXTT0=
EXTT1=
EXTT2=
EXTT3=
EXTT4=
EXTT5=
EXTT6=
EXTT7=
EXTT8=
EXTT9=
EXTT10=
EXTT11=
EXTT12=
EXTT13=
PLAYORDER=
